<?xml version="1.0" standalone="no"?>
<!DOCTYPE svg PUBLIC "-//W3C//DTD SVG 20010904//EN"
 "http://www.w3.org/TR/2001/REC-SVG-20010904/DTD/svg10.dtd">
<svg version="1.0" xmlns="http://www.w3.org/2000/svg"
 width="925.000000pt" height="925.000000pt" viewBox="0 0 925.000000 925.000000"
 preserveAspectRatio="xMidYMid meet">
<metadata>
Created by potrace 1.14, written by Peter Selinger 2001-2017
</metadata>
<g transform="translate(0.000000,925.000000) scale(0.100000,-0.100000)"
fill="#000000" stroke="none">
<path d="M4320 8717 c-3 -3 -45 -7 -95 -10 -293 -20 -684 -102 -990 -208 -896
-313 -1677 -962 -2152 -1789 -168 -292 -298 -603 -387 -928 -58 -208 -83 -335
-121 -617 -11 -80 -20 -254 -19 -375 0 -142 11 -418 18 -460 2 -14 7 -50 11
-80 24 -218 56 -378 119 -610 36 -134 111 -350 158 -460 74 -170 199 -422 224
-451 8 -8 14 -19 14 -23 0 -15 152 -246 241 -366 229 -310 516 -599 824 -829
592 -443 1323 -720 2050 -779 117 -9 553 -9 677 0 239 19 552 77 773 143 66
20 136 41 155 47 249 73 684 287 960 471 71 48 269 194 280 207 3 3 19 16 35
29 112 85 365 331 490 476 444 514 758 1153 894 1820 58 283 79 511 75 800 -2
208 -6 280 -24 445 -16 137 -20 167 -51 325 -102 528 -316 1038 -625 1489 -98
142 -194 265 -313 401 -69 77 -277 283 -361 355 -41 36 -77 68 -80 71 -3 3
-59 46 -125 96 -410 309 -848 527 -1327 663 -140 40 -440 103 -538 114 -30 4
-77 9 -105 12 -27 3 -63 8 -80 10 -39 7 -599 17 -605 11z"/>
</g>
</svg>
